<svg width="17" height="17" viewBox="0 0 17 17" fill="none" xmlns="http://www.w3.org/2000/svg">
<path d="M12.79 16.4623C11.3513 16.461 9.93491 16.1054 8.66619 15.427L8.27469 15.2095C5.56964 13.7551 3.35196 11.5374 1.89759 8.83241L1.68009 8.44091C0.983929 7.16496 0.616189 5.7358 0.609986 4.28229V3.69939C0.60962 3.23564 0.794391 2.79093 1.12329 2.46399L2.59359 0.993688C2.73638 0.84979 2.93794 0.780434 3.13904 0.805995C3.34014 0.831555 3.51794 0.949144 3.62019 1.12419L5.57769 4.48239C5.77564 4.8242 5.71848 5.25648 5.43849 5.53509L3.79419 7.17941C3.65763 7.31443 3.62582 7.52306 3.71589 7.69271L4.02039 8.26691C5.11401 10.2926 6.77768 11.9533 8.80539 13.0432L9.37959 13.3564C9.54924 13.4465 9.75786 13.4146 9.89289 13.2781L11.5372 11.6338C11.8158 11.3538 12.2481 11.2967 12.5899 11.4946L15.9481 13.4521C16.1231 13.5543 16.2408 13.7322 16.2662 13.9332C16.2918 14.1344 16.2225 14.3359 16.0786 14.4787L14.6083 15.949C14.2813 16.2779 13.8366 16.4627 13.3729 16.4623H12.79Z" fill="white"/>
</svg>
