<svg xmlns="http://www.w3.org/2000/svg" xmlns:xlink="http://www.w3.org/1999/xlink" width="4000" zoomAndPan="magnify" viewBox="0 0 3000 1124.99995" height="1500" preserveAspectRatio="xMidYMid meet" version="1.0"><defs><g/><clipPath id="id1"><path d="M 112.5 239.722656 L 894.75 239.722656 L 894.75 826.222656 L 112.5 826.222656 Z M 112.5 239.722656 " clip-rule="nonzero"/></clipPath></defs><rect x="-300" width="3600" fill="#ffffff" y="-112.499995" height="1349.99994" fill-opacity="1"/><rect x="-300" width="3600" fill="#ffffff" y="-112.499995" height="1349.99994" fill-opacity="1"/><rect x="-300" width="3600" fill="#ffffff" y="-112.499995" height="1349.99994" fill-opacity="1"/><rect x="-300" width="3600" fill="#ffffff" y="-112.499995" height="1349.99994" fill-opacity="1"/><g clip-path="url(#id1)"><path fill="#3b3b3b" d="M 118.613281 746.800781 C 121.988281 746.800781 124.722656 744.0625 124.722656 740.691406 L 124.722656 389.402344 C 124.722656 354.203125 153.238281 325.566406 188.28125 325.566406 L 325.769531 325.566406 C 333.667969 325.566406 341.011719 320.972656 344.488281 313.867188 L 368.371094 265.039062 C 372.261719 257.082031 380.472656 251.941406 389.296875 251.941406 L 617.550781 251.941406 C 626.617188 251.941406 635.058594 257.222656 639.058594 265.402344 L 662.761719 313.863281 C 666.238281 320.972656 673.582031 325.566406 681.480469 325.566406 L 818.96875 325.566406 C 854.011719 325.566406 882.527344 354.203125 882.527344 389.402344 L 882.527344 814.003906 L 508.246094 814.003906 C 398.609375 814.003906 307.199219 726.640625 304.46875 619.25 C 303.054688 564.617188 323.214844 513.046875 361.234375 474.046875 C 399.03125 435.273438 449.601562 413.914062 503.625 413.914062 C 613.480469 413.914062 702.855469 503.65625 702.855469 613.957031 C 702.855469 617.332031 705.589844 620.066406 708.964844 620.066406 C 712.339844 620.066406 715.078125 617.332031 715.078125 613.957031 C 715.078125 496.917969 620.21875 401.695312 503.625 401.695312 C 446.273438 401.695312 392.597656 424.363281 352.480469 465.519531 C 312.144531 506.902344 290.75 561.609375 292.25 619.5625 C 295.144531 733.515625 392.039062 826.222656 508.246094 826.222656 L 888.269531 826.222656 C 891.644531 826.222656 894.746094 823.117188 894.746094 819.746094 L 894.746094 389.402344 C 894.746094 347.464844 860.753906 313.347656 818.96875 313.347656 L 681.480469 313.347656 C 678.171875 313.347656 675.203125 311.488281 673.742188 308.496094 L 650.039062 260.03125 C 644.003906 247.695312 631.253906 239.722656 617.550781 239.722656 L 389.296875 239.722656 C 375.839844 239.722656 363.3125 247.554688 357.390625 259.671875 L 333.507812 308.5 C 332.046875 311.488281 329.078125 313.347656 325.769531 313.347656 L 283.617188 313.347656 L 283.617188 306.925781 C 283.617188 296.816406 275.394531 288.597656 265.285156 288.597656 L 216.394531 288.597656 C 206.285156 288.597656 198.058594 296.816406 198.058594 306.925781 L 198.058594 313.347656 L 188.28125 313.347656 C 146.496094 313.347656 112.503906 347.464844 112.503906 389.402344 L 112.503906 740.691406 C 112.503906 744.0625 115.238281 746.800781 118.613281 746.800781 Z M 210.28125 306.925781 C 210.28125 303.554688 213.023438 300.816406 216.394531 300.816406 L 265.285156 300.816406 C 268.652344 300.816406 271.394531 303.554688 271.394531 306.925781 L 271.394531 313.347656 L 210.28125 313.347656 Z M 210.28125 306.925781 " fill-opacity="1" fill-rule="nonzero"/></g><path fill="#3b3b3b" d="M 610.214844 281.390625 C 613.589844 281.390625 616.324219 278.652344 616.324219 275.28125 C 616.324219 271.90625 613.589844 269.171875 610.214844 269.171875 L 396.632812 269.171875 C 393.257812 269.171875 390.519531 271.90625 390.519531 275.28125 C 390.519531 278.652344 393.257812 281.390625 396.632812 281.390625 Z M 610.214844 281.390625 " fill-opacity="1" fill-rule="nonzero"/><path fill="#3b3b3b" d="M 199.285156 382.117188 C 189.171875 382.117188 180.949219 390.335938 180.949219 400.445312 L 180.949219 434.90625 C 180.949219 445.015625 189.171875 453.234375 199.285156 453.234375 L 270.171875 453.234375 C 280.28125 453.234375 288.507812 445.015625 288.507812 434.90625 L 288.507812 400.445312 C 288.507812 390.335938 280.28125 382.117188 270.171875 382.117188 Z M 276.285156 400.445312 L 276.285156 434.90625 C 276.285156 438.277344 273.542969 441.015625 270.171875 441.015625 L 199.285156 441.015625 C 195.914062 441.015625 193.171875 438.277344 193.171875 434.90625 L 193.171875 400.445312 C 193.171875 397.074219 195.914062 394.335938 199.285156 394.335938 L 270.171875 394.335938 C 273.542969 394.335938 276.285156 397.074219 276.285156 400.445312 Z M 276.285156 400.445312 " fill-opacity="1" fill-rule="nonzero"/><path fill="#3b3b3b" d="M 503.625 445.875 C 411.292969 445.875 336.175781 521.277344 336.175781 613.957031 C 336.175781 706.640625 411.292969 782.042969 503.625 782.042969 C 595.957031 782.042969 671.074219 706.640625 671.074219 613.957031 C 671.074219 521.277344 595.957031 445.875 503.625 445.875 Z M 503.625 769.824219 C 418.035156 769.824219 348.398438 699.90625 348.398438 613.957031 C 348.398438 528.011719 418.035156 458.09375 503.625 458.09375 C 589.214844 458.09375 658.851562 528.011719 658.851562 613.957031 C 658.851562 699.90625 589.214844 769.824219 503.625 769.824219 Z M 503.625 769.824219 " fill-opacity="1" fill-rule="nonzero"/><path fill="#3b3b3b" d="M 509.734375 510.882812 C 509.734375 507.511719 507 504.773438 503.625 504.773438 C 443.644531 504.773438 394.84375 553.753906 394.84375 613.957031 C 394.84375 617.332031 397.582031 620.066406 400.957031 620.066406 C 404.332031 620.066406 407.066406 617.332031 407.066406 613.957031 C 407.066406 560.492188 450.382812 516.992188 503.625 516.992188 C 507 516.992188 509.734375 514.257812 509.734375 510.882812 Z M 509.734375 510.882812 " fill-opacity="1" fill-rule="nonzero"/><path fill="#3b3b3b" d="M 606.292969 607.847656 C 602.917969 607.847656 600.183594 610.585938 600.183594 613.957031 C 600.183594 667.429688 556.867188 710.925781 503.625 710.925781 C 500.25 710.925781 497.515625 713.664062 497.515625 717.035156 C 497.515625 720.410156 500.25 723.144531 503.625 723.144531 C 563.605469 723.144531 612.40625 674.164062 612.40625 613.957031 C 612.40625 610.585938 609.667969 607.847656 606.292969 607.847656 Z M 606.292969 607.847656 " fill-opacity="1" fill-rule="nonzero"/><g fill="#e4b858" fill-opacity="1"><g transform="translate(1184.105821, 472.698045)"><g><path d="M 152.1875 -31.96875 C 142.28125 -14.410156 122.921875 -3.152344 98.382812 -3.152344 C 58.757812 -3.152344 32.195312 -32.867188 32.195312 -79.019531 C 32.195312 -124.722656 58.535156 -154.4375 99.507812 -154.4375 C 122.472656 -154.4375 139.355469 -144.984375 145.660156 -131.25 C 144.984375 -131.476562 144.308594 -131.476562 143.632812 -131.476562 C 136.652344 -131.476562 131.476562 -126.523438 131.476562 -119.542969 C 131.476562 -112.566406 136.652344 -107.613281 143.632812 -107.613281 C 150.613281 -107.613281 155.339844 -112.789062 155.339844 -119.320312 L 155.339844 -119.542969 C 155.339844 -140.929688 129.226562 -159.84375 94.328125 -159.84375 C 46.375 -159.84375 11.257812 -124.273438 11.257812 -78.796875 C 11.257812 -32.195312 47.503906 2.25 94.554688 2.25 C 123.597656 2.25 147.683594 -11.03125 157.140625 -28.816406 Z M 152.1875 -31.96875 "/></g></g></g><g fill="#e4b858" fill-opacity="1"><g transform="translate(1357.450878, 472.698045)"><g><path d="M 132.601562 0 L 153.539062 0 L 84.648438 -157.589844 L 75.867188 -157.589844 L 6.753906 0 L 13.058594 0 L 33.542969 -46.601562 L 112.339844 -46.601562 Z M 35.34375 -51.105469 L 72.941406 -136.878906 L 110.3125 -51.105469 Z M 35.34375 -51.105469 "/></g></g></g><g fill="#e4b858" fill-opacity="1"><g transform="translate(1523.141745, 472.698045)"><g><path d="M 76.09375 -87.351562 C 53.804688 -96.128906 31.292969 -105.359375 31.292969 -124.722656 C 31.292969 -141.832031 48.851562 -154.890625 72.265625 -154.890625 C 90.277344 -154.890625 104.910156 -147.683594 110.988281 -137.105469 L 110.089844 -137.105469 C 103.335938 -137.105469 98.382812 -132.375 98.382812 -125.847656 C 98.382812 -119.320312 103.335938 -114.816406 110.089844 -114.816406 C 116.167969 -114.816406 120.894531 -119.320312 120.894531 -125.847656 C 120.894531 -145.210938 98.832031 -159.84375 70.242188 -159.84375 C 38.949219 -159.84375 15.757812 -142.28125 15.757812 -117.292969 C 15.757812 -90.050781 43.226562 -79.019531 65.964844 -69.789062 C 90.050781 -60.335938 110.988281 -51.554688 110.988281 -32.644531 C 110.988281 -15.082031 92.753906 -2.703125 67.089844 -2.703125 C 46.152344 -2.703125 28.816406 -10.804688 22.289062 -22.964844 L 23.863281 -22.964844 C 29.941406 -22.964844 34.671875 -27.691406 34.671875 -34.21875 C 34.671875 -40.75 29.941406 -45.25 23.863281 -45.25 C 17.109375 -45.25 12.15625 -40.75 12.15625 -34.21875 C 12.15625 -13.507812 37.597656 2.25 69.789062 2.25 C 103.109375 2.25 126.972656 -14.632812 126.972656 -40.972656 C 126.972656 -67.765625 102.210938 -77.445312 76.09375 -87.351562 Z M 76.09375 -87.351562 "/></g></g></g><g fill="#e4b858" fill-opacity="1"><g transform="translate(1666.095185, 472.698045)"><g><path d="M 41.648438 -4.503906 L 41.648438 -77.671875 L 112.339844 -77.671875 L 112.339844 -82.171875 L 41.648438 -82.171875 L 41.648438 -153.089844 L 130.351562 -153.089844 L 130.351562 -157.589844 L 21.613281 -157.589844 L 21.613281 0 L 132.601562 0 L 132.601562 -4.503906 Z M 41.648438 -4.503906 "/></g></g></g><g fill="#e4b858" fill-opacity="1"><g transform="translate(1813.100833, 472.698045)"><g><path d="M 139.582031 -157.589844 L 84.425781 -73.84375 L 29.042969 -157.589844 L 6.753906 -157.589844 L 66.414062 -67.539062 L 66.414062 0 L 86.449219 0 L 86.449219 -67.539062 L 146.109375 -157.589844 Z M 139.582031 -157.589844 "/></g></g></g><g fill="#e4b858" fill-opacity="1"><g transform="translate(1971.362591, 472.698045)"><g/></g></g><g fill="#e4b858" fill-opacity="1"><g transform="translate(2037.323908, 472.698045)"><g><path d="M 41.648438 -4.503906 L 41.648438 -157.589844 L 21.613281 -157.589844 L 21.613281 0 L 126.972656 0 L 126.972656 -4.503906 Z M 41.648438 -4.503906 "/></g></g></g><g fill="#e4b858" fill-opacity="1"><g transform="translate(2177.575877, 472.698045)"><g><path d="M 41.648438 -4.503906 L 41.648438 -77.671875 L 112.339844 -77.671875 L 112.339844 -82.171875 L 41.648438 -82.171875 L 41.648438 -153.089844 L 130.351562 -153.089844 L 130.351562 -157.589844 L 21.613281 -157.589844 L 21.613281 0 L 132.601562 0 L 132.601562 -4.503906 Z M 41.648438 -4.503906 "/></g></g></g><g fill="#e4b858" fill-opacity="1"><g transform="translate(2324.581525, 472.698045)"><g><path d="M 237.289062 -157.589844 L 177.628906 -20.488281 L 117.742188 -157.589844 L 96.804688 -157.589844 L 122.019531 -99.957031 L 87.351562 -20.710938 L 27.691406 -157.589844 L 6.753906 -157.589844 L 75.644531 0 L 84.425781 0 L 125.171875 -92.753906 L 165.695312 0 L 174.476562 0 L 243.589844 -157.589844 Z M 237.289062 -157.589844 "/></g></g></g><g fill="#e4b858" fill-opacity="1"><g transform="translate(2580.321621, 472.698045)"><g><path d="M 21.613281 0 L 41.648438 0 L 41.648438 -157.589844 L 21.613281 -157.589844 Z M 21.613281 0 "/></g></g></g><g fill="#e4b858" fill-opacity="1"><g transform="translate(2648.759233, 472.698045)"><g><path d="M 76.09375 -87.351562 C 53.804688 -96.128906 31.292969 -105.359375 31.292969 -124.722656 C 31.292969 -141.832031 48.851562 -154.890625 72.265625 -154.890625 C 90.277344 -154.890625 104.910156 -147.683594 110.988281 -137.105469 L 110.089844 -137.105469 C 103.335938 -137.105469 98.382812 -132.375 98.382812 -125.847656 C 98.382812 -119.320312 103.335938 -114.816406 110.089844 -114.816406 C 116.167969 -114.816406 120.894531 -119.320312 120.894531 -125.847656 C 120.894531 -145.210938 98.832031 -159.84375 70.242188 -159.84375 C 38.949219 -159.84375 15.757812 -142.28125 15.757812 -117.292969 C 15.757812 -90.050781 43.226562 -79.019531 65.964844 -69.789062 C 90.050781 -60.335938 110.988281 -51.554688 110.988281 -32.644531 C 110.988281 -15.082031 92.753906 -2.703125 67.089844 -2.703125 C 46.152344 -2.703125 28.816406 -10.804688 22.289062 -22.964844 L 23.863281 -22.964844 C 29.941406 -22.964844 34.671875 -27.691406 34.671875 -34.21875 C 34.671875 -40.75 29.941406 -45.25 23.863281 -45.25 C 17.109375 -45.25 12.15625 -40.75 12.15625 -34.21875 C 12.15625 -13.507812 37.597656 2.25 69.789062 2.25 C 103.109375 2.25 126.972656 -14.632812 126.972656 -40.972656 C 126.972656 -67.765625 102.210938 -77.445312 76.09375 -87.351562 Z M 76.09375 -87.351562 "/></g></g></g><g fill="#3b3b3b" fill-opacity="1"><g transform="translate(1227.644265, 766.875787)"><g><path d="M -10.40625 35.65625 C -12.1875 35.457031 -13.273438 33.972656 -13.671875 31.203125 C -14.660156 27.441406 -14.957031 23.28125 -14.5625 18.71875 C -14.363281 10.394531 -13.078125 -0.894531 -10.703125 -15.15625 C -7.722656 -32.195312 -4.453125 -49.53125 -0.890625 -67.15625 C -0.890625 -67.550781 -0.296875 -70.519531 0.890625 -76.0625 C 2.078125 -81.613281 2.867188 -85.484375 3.265625 -87.671875 C 3.460938 -90.046875 4.054688 -92.125 5.046875 -93.90625 C 5.640625 -94.894531 6.429688 -95.390625 7.421875 -95.390625 C 8.617188 -95.191406 9.21875 -94.5 9.21875 -93.3125 C 9.613281 -90.539062 9.8125 -88.363281 9.8125 -86.78125 C 9.8125 -82.613281 7.925781 -70.625 4.15625 -50.8125 C 1.582031 -38.53125 -2.078125 -20.109375 -6.828125 4.453125 C -7.421875 7.429688 -8.015625 11.890625 -8.609375 17.828125 C -9.210938 23.773438 -9.515625 26.945312 -9.515625 27.34375 L -8.921875 28.234375 C -8.328125 28.234375 -8.03125 28.035156 -8.03125 27.640625 C -6.4375 23.671875 -5.34375 20.695312 -4.75 18.71875 C 1.976562 -5.050781 7.425781 -22.78125 11.59375 -34.46875 C 16.9375 -50.320312 22.484375 -63.003906 28.234375 -72.515625 C 31.796875 -78.648438 35.0625 -83.40625 38.03125 -86.78125 C 42.195312 -91.925781 47.148438 -96.378906 52.890625 -100.140625 C 57.847656 -102.921875 62.109375 -104.3125 65.671875 -104.3125 C 73.003906 -104.3125 77.660156 -100.84375 79.640625 -93.90625 C 80.035156 -92.519531 80.429688 -91.675781 80.828125 -91.375 C 81.222656 -91.082031 82.015625 -91.035156 83.203125 -91.234375 C 86.773438 -92.023438 95.394531 -93.410156 109.0625 -95.390625 C 109.257812 -95.390625 112.726562 -95.6875 119.46875 -96.28125 C 119.863281 -96.28125 120.40625 -96.226562 121.09375 -96.125 C 121.789062 -96.03125 122.238281 -95.984375 122.4375 -95.984375 C 122.832031 -95.585938 123.03125 -95.289062 123.03125 -95.09375 C 123.226562 -94.5 123.128906 -94.003906 122.734375 -93.609375 C 121.546875 -92.816406 119.765625 -92.421875 117.390625 -92.421875 C 112.429688 -92.421875 105 -91.628906 95.09375 -90.046875 C 93.90625 -89.847656 92.019531 -89.453125 89.4375 -88.859375 C 86.863281 -88.265625 84.882812 -87.867188 83.5 -87.671875 C 80.925781 -87.078125 79.539062 -85.6875 79.34375 -83.5 C 77.957031 -75.78125 74.585938 -68.453125 69.234375 -61.515625 C 65.273438 -55.367188 59.828125 -51.304688 52.890625 -49.328125 C 48.929688 -47.941406 45.515625 -48.535156 42.640625 -51.109375 C 39.765625 -53.691406 38.726562 -57.160156 39.53125 -61.515625 C 40.519531 -66.265625 42.796875 -70.328125 46.359375 -73.703125 C 51.703125 -78.847656 57.644531 -82.707031 64.1875 -85.28125 L 73.703125 -88.859375 C 75.285156 -89.253906 75.976562 -90.441406 75.78125 -92.421875 C 75.382812 -97.171875 72.707031 -99.84375 67.75 -100.4375 C 64.976562 -100.832031 62.601562 -100.632812 60.625 -99.84375 C 57.457031 -98.851562 53.691406 -96.773438 49.328125 -93.609375 C 44.578125 -90.046875 40.117188 -85.289062 35.953125 -79.34375 C 29.617188 -70.625 23.875 -59.628906 18.71875 -46.359375 C 15.550781 -38.628906 11.585938 -27.039062 6.828125 -11.59375 C 5.640625 -8.019531 4.003906 -2.671875 1.921875 4.453125 C -0.148438 11.585938 -1.679688 16.9375 -2.671875 20.5 C -3.460938 23.082031 -4.847656 26.945312 -6.828125 32.09375 C -7.628906 34.46875 -8.820312 35.65625 -10.40625 35.65625 Z M 49.328125 -52 C 49.722656 -52 50.710938 -52.195312 52.296875 -52.59375 C 56.460938 -53.976562 60.03125 -56.359375 63 -59.734375 C 69.144531 -66.460938 73.207031 -74.085938 75.1875 -82.609375 C 75.382812 -83.597656 75.332031 -84.289062 75.03125 -84.6875 C 74.738281 -85.082031 74.097656 -85.082031 73.109375 -84.6875 C 64.390625 -81.914062 56.5625 -77.5625 49.625 -71.625 C 47.050781 -69.238281 44.972656 -66.363281 43.390625 -63 C 43.390625 -62.800781 43.289062 -62.453125 43.09375 -61.953125 C 42.894531 -61.460938 42.742188 -61.019531 42.640625 -60.625 C 42.546875 -60.226562 42.5 -59.832031 42.5 -59.4375 C 42.300781 -57.457031 42.894531 -55.671875 44.28125 -54.078125 C 45.664062 -52.492188 47.347656 -51.800781 49.328125 -52 Z M 49.328125 -52 "/></g></g></g><g fill="#3b3b3b" fill-opacity="1"><g transform="translate(1344.728855, 766.875787)"><g><path d="M 11.59375 -71.03125 C 9.007812 -68.445312 6.828125 -68.84375 5.046875 -72.21875 C 4.054688 -74.59375 3.363281 -77.460938 2.96875 -80.828125 C 2.570312 -89.742188 3.164062 -97.472656 4.75 -104.015625 C 8.125 -120.648438 13.769531 -138.773438 21.6875 -158.390625 C 25.65625 -167.503906 30.507812 -175.828125 36.25 -183.359375 C 38.238281 -186.328125 40.421875 -188.601562 42.796875 -190.1875 C 44.378906 -191.375 45.960938 -192.265625 47.546875 -192.859375 C 50.316406 -193.847656 52.59375 -193.15625 54.375 -190.78125 C 55.96875 -188.601562 56.765625 -186.03125 56.765625 -183.0625 C 56.960938 -178.894531 56.367188 -173.941406 54.984375 -168.203125 C 52.992188 -159.484375 49.625 -150.664062 44.875 -141.75 C 37.34375 -126.695312 29.21875 -114.019531 20.5 -103.71875 C 15.75 -98.5625 12.582031 -95.289062 11 -93.90625 C 9.613281 -92.914062 8.921875 -91.828125 8.921875 -90.640625 C 7.921875 -84.296875 8.117188 -78.648438 9.515625 -73.703125 C 11.492188 -74.691406 13.472656 -76.570312 15.453125 -79.34375 L 25.859375 -90.9375 C 27.441406 -92.914062 29.617188 -94.894531 32.390625 -96.875 C 33.773438 -98.257812 35.257812 -99.050781 36.84375 -99.25 C 40.414062 -100.238281 43.09375 -99.445312 44.875 -96.875 C 46.851562 -94.695312 48.535156 -92.421875 49.921875 -90.046875 C 52.890625 -84.691406 57.097656 -81.46875 62.546875 -80.375 C 68.003906 -79.289062 73.40625 -80.828125 78.75 -84.984375 L 86.78125 -92.125 C 87.375 -92.71875 88.265625 -93.410156 89.453125 -94.203125 C 89.453125 -94.597656 89.75 -94.5 90.34375 -93.90625 C 90.539062 -93.90625 90.640625 -93.707031 90.640625 -93.3125 L 90.34375 -93.015625 C 85.382812 -86.867188 80.132812 -82.410156 74.59375 -79.640625 C 70.425781 -77.066406 65.566406 -76.421875 60.015625 -77.703125 C 54.472656 -78.992188 50.316406 -82.117188 47.546875 -87.078125 C 44.773438 -91.429688 43.191406 -93.90625 42.796875 -94.5 C 40.816406 -97.46875 38.238281 -97.960938 35.0625 -95.984375 C 33.28125 -94.992188 31.398438 -93.507812 29.421875 -91.53125 C 26.054688 -88.363281 22.191406 -83.90625 17.828125 -78.15625 C 17.429688 -77.5625 16.835938 -76.769531 16.046875 -75.78125 C 15.253906 -74.789062 14.507812 -73.898438 13.8125 -73.109375 C 13.125 -72.316406 12.382812 -71.625 11.59375 -71.03125 Z M 10.109375 -97.46875 L 11 -97.46875 C 11.195312 -97.664062 11.59375 -98.007812 12.1875 -98.5 C 12.78125 -99 13.273438 -99.492188 13.671875 -99.984375 C 14.066406 -100.484375 14.460938 -100.929688 14.859375 -101.328125 C 26.941406 -114.609375 37.441406 -130.757812 46.359375 -149.78125 C 48.929688 -155.519531 50.910156 -161.066406 52.296875 -166.421875 C 53.878906 -171.765625 54.671875 -176.816406 54.671875 -181.578125 C 54.671875 -183.359375 54.375 -185.140625 53.78125 -186.921875 C 52.394531 -190.085938 50.117188 -190.78125 46.953125 -189 C 44.378906 -187.019531 42.398438 -184.84375 41.015625 -182.46875 C 39.617188 -180.28125 37.734375 -177.007812 35.359375 -172.65625 C 29.816406 -162.75 24.664062 -150.367188 19.90625 -135.515625 C 15.75 -123.628906 12.679688 -113.03125 10.703125 -103.71875 C 10.304688 -100.34375 10.109375 -98.257812 10.109375 -97.46875 Z M 10.109375 -97.46875 "/></g></g></g><g fill="#3b3b3b" fill-opacity="1"><g transform="translate(1429.422054, 766.875787)"><g><path d="M 43.984375 -94.796875 C 44.578125 -94.796875 44.675781 -94.445312 44.28125 -93.75 C 43.882812 -93.0625 42.992188 -92.71875 41.609375 -92.71875 L 24.96875 -91.828125 L 22.28125 -91.828125 C 22.28125 -91.628906 22.226562 -91.234375 22.125 -90.640625 C 22.03125 -90.046875 21.984375 -89.550781 21.984375 -89.15625 C 21.191406 -85.976562 20.398438 -83.597656 19.609375 -82.015625 C 18.421875 -79.640625 16.9375 -77.5625 15.15625 -75.78125 C 11 -72.613281 7.332031 -73.109375 4.15625 -77.265625 C 2.375 -79.242188 1.484375 -82.316406 1.484375 -86.484375 C 1.878906 -90.640625 3.5625 -94.695312 6.53125 -98.65625 C 8.71875 -100.84375 10.503906 -101.535156 11.890625 -100.734375 C 12.285156 -100.535156 12.382812 -100.140625 12.1875 -99.546875 C 13.375 -99.941406 14.363281 -100.140625 15.15625 -100.140625 C 18.519531 -100.140625 20.695312 -98.359375 21.6875 -94.796875 L 24.96875 -94.796875 C 27.9375 -94.992188 33.285156 -95.09375 41.015625 -95.09375 C 41.210938 -95.09375 41.65625 -95.039062 42.34375 -94.9375 C 43.039062 -94.84375 43.585938 -94.796875 43.984375 -94.796875 Z M 18.71875 -94.796875 C 17.53125 -98.160156 15.847656 -99.25 13.671875 -98.0625 C 13.078125 -97.664062 12.78125 -97.171875 12.78125 -96.578125 C 12.78125 -95.390625 14.757812 -94.796875 18.71875 -94.796875 Z M 14.5625 -79.34375 C 17.332031 -81.914062 18.914062 -85.582031 19.3125 -90.34375 L 19.3125 -91.828125 C 13.570312 -92.222656 10.703125 -93.804688 10.703125 -96.578125 L 10.703125 -97.46875 C 7.328125 -92.914062 6.332031 -87.566406 7.71875 -81.421875 C 8.125 -79.441406 9.019531 -78.253906 10.40625 -77.859375 C 11.789062 -77.460938 13.175781 -77.957031 14.5625 -79.34375 Z M 14.5625 -79.34375 "/></g></g></g><g fill="#3b3b3b" fill-opacity="1"><g transform="translate(1468.054051, 766.875787)"><g><path d="M 132.234375 -166.421875 C 132.429688 -166.421875 132.53125 -166.320312 132.53125 -166.125 C 132.53125 -165.925781 132.429688 -165.828125 132.234375 -165.828125 L 131.046875 -164.640625 C 126.691406 -162.253906 122.734375 -160.566406 119.171875 -159.578125 C 111.242188 -157.796875 101.929688 -156.90625 91.234375 -156.90625 C 88.660156 -156.90625 78.40625 -157.003906 60.46875 -157.203125 C 42.539062 -157.398438 31.398438 -157.5 27.046875 -157.5 L 21.6875 -157.5 C 18.519531 -145.21875 16.835938 -138.582031 16.640625 -137.59375 C 11.890625 -117.78125 8.914062 -96.085938 7.71875 -72.515625 C 7.320312 -66.566406 7.722656 -61.019531 8.921875 -55.875 C 9.710938 -52.300781 10.503906 -49.820312 11.296875 -48.4375 C 13.078125 -44.082031 16.242188 -42.894531 20.796875 -44.875 C 21.585938 -45.269531 22.78125 -46.0625 24.375 -47.25 C 29.320312 -50.613281 33.773438 -54.972656 37.734375 -60.328125 C 42.492188 -66.660156 49.429688 -76.367188 58.546875 -89.453125 C 60.921875 -92.421875 62.503906 -94.003906 63.296875 -94.203125 C 63.492188 -93.410156 63.539062 -92.914062 63.4375 -92.71875 C 63.34375 -92.519531 62.847656 -91.773438 61.953125 -90.484375 C 61.066406 -89.203125 60.523438 -88.460938 60.328125 -88.265625 C 52.992188 -77.765625 45.460938 -67.5625 37.734375 -57.65625 C 33.773438 -52.695312 29.816406 -48.632812 25.859375 -45.46875 C 24.273438 -44.082031 22.585938 -42.992188 20.796875 -42.203125 C 16.640625 -39.617188 12.78125 -40.507812 9.21875 -44.875 C 8.019531 -46.257812 6.925781 -48.335938 5.9375 -51.109375 C 3.957031 -57.054688 2.96875 -63.5 2.96875 -70.4375 C 2.570312 -86.082031 3.5625 -101.234375 5.9375 -115.890625 C 7.726562 -128.378906 10.503906 -142.25 14.265625 -157.5 C -1.390625 -157.5 -17.832031 -156.609375 -35.0625 -154.828125 C -43.976562 -154.035156 -50.617188 -152.945312 -54.984375 -151.5625 C -59.734375 -149.78125 -62.601562 -147.894531 -63.59375 -145.90625 C -63.59375 -145.707031 -63.890625 -145.609375 -64.484375 -145.609375 C -65.078125 -146.203125 -65.375 -146.695312 -65.375 -147.09375 C -65.570312 -148.289062 -65.078125 -149.484375 -63.890625 -150.671875 C -62.503906 -151.859375 -60.625 -152.847656 -58.25 -153.640625 C -54.28125 -155.222656 -49.03125 -156.410156 -42.5 -157.203125 C -24.070312 -159.378906 -6.535156 -160.46875 10.109375 -160.46875 L 14.859375 -160.46875 C 14.859375 -161.0625 15.003906 -161.953125 15.296875 -163.140625 C 15.597656 -164.335938 15.847656 -165.332031 16.046875 -166.125 C 19.609375 -179.394531 25.15625 -194.648438 32.6875 -211.890625 C 33.082031 -212.484375 33.578125 -213.472656 34.171875 -214.859375 C 34.765625 -216.242188 35.257812 -217.332031 35.65625 -218.125 L 37.140625 -220.796875 C 38.328125 -222.773438 39.613281 -223.46875 41 -222.875 C 42.394531 -222.28125 42.796875 -220.894531 42.203125 -218.71875 C 42.003906 -217.332031 41.507812 -215.453125 40.71875 -213.078125 C 39.925781 -210.890625 38.785156 -207.816406 37.296875 -203.859375 C 35.804688 -199.898438 34.765625 -197.226562 34.171875 -195.84375 C 29.816406 -184.539062 26.351562 -174.4375 23.78125 -165.53125 L 22.28125 -160.171875 C 43.675781 -159.773438 59.328125 -159.578125 69.234375 -159.578125 C 71.816406 -159.578125 75.832031 -159.476562 81.28125 -159.28125 C 86.726562 -159.082031 90.835938 -158.984375 93.609375 -158.984375 C 99.359375 -158.984375 106.390625 -159.675781 114.703125 -161.0625 C 118.867188 -162.050781 123.523438 -163.738281 128.671875 -166.125 L 131.34375 -167.015625 C 131.539062 -167.015625 131.835938 -166.816406 132.234375 -166.421875 Z M 132.234375 -166.421875 "/></g></g></g><g fill="#3b3b3b" fill-opacity="1"><g transform="translate(1524.813354, 766.875787)"><g><path d="M 43.984375 -94.796875 C 44.578125 -94.796875 44.675781 -94.445312 44.28125 -93.75 C 43.882812 -93.0625 42.992188 -92.71875 41.609375 -92.71875 L 24.96875 -91.828125 L 22.28125 -91.828125 C 22.28125 -91.628906 22.226562 -91.234375 22.125 -90.640625 C 22.03125 -90.046875 21.984375 -89.550781 21.984375 -89.15625 C 21.191406 -85.976562 20.398438 -83.597656 19.609375 -82.015625 C 18.421875 -79.640625 16.9375 -77.5625 15.15625 -75.78125 C 11 -72.613281 7.332031 -73.109375 4.15625 -77.265625 C 2.375 -79.242188 1.484375 -82.316406 1.484375 -86.484375 C 1.878906 -90.640625 3.5625 -94.695312 6.53125 -98.65625 C 8.71875 -100.84375 10.503906 -101.535156 11.890625 -100.734375 C 12.285156 -100.535156 12.382812 -100.140625 12.1875 -99.546875 C 13.375 -99.941406 14.363281 -100.140625 15.15625 -100.140625 C 18.519531 -100.140625 20.695312 -98.359375 21.6875 -94.796875 L 24.96875 -94.796875 C 27.9375 -94.992188 33.285156 -95.09375 41.015625 -95.09375 C 41.210938 -95.09375 41.65625 -95.039062 42.34375 -94.9375 C 43.039062 -94.84375 43.585938 -94.796875 43.984375 -94.796875 Z M 18.71875 -94.796875 C 17.53125 -98.160156 15.847656 -99.25 13.671875 -98.0625 C 13.078125 -97.664062 12.78125 -97.171875 12.78125 -96.578125 C 12.78125 -95.390625 14.757812 -94.796875 18.71875 -94.796875 Z M 14.5625 -79.34375 C 17.332031 -81.914062 18.914062 -85.582031 19.3125 -90.34375 L 19.3125 -91.828125 C 13.570312 -92.222656 10.703125 -93.804688 10.703125 -96.578125 L 10.703125 -97.46875 C 7.328125 -92.914062 6.332031 -87.566406 7.71875 -81.421875 C 8.125 -79.441406 9.019531 -78.253906 10.40625 -77.859375 C 11.789062 -77.460938 13.175781 -77.957031 14.5625 -79.34375 Z M 14.5625 -79.34375 "/></g></g></g><g fill="#3b3b3b" fill-opacity="1"><g transform="translate(1563.445352, 766.875787)"><g><path d="M 137.890625 -93.90625 C 138.679688 -93.113281 138.484375 -92.320312 137.296875 -91.53125 C 133.722656 -88.363281 131.046875 -86.082031 129.265625 -84.6875 C 117.179688 -75.382812 109.65625 -69.441406 106.6875 -66.859375 C 94.800781 -56.753906 81.128906 -41.992188 65.671875 -22.578125 C 64.285156 -20.597656 63.492188 -18.617188 63.296875 -16.640625 L 56.46875 16.046875 C 54.082031 27.335938 50.414062 38.035156 45.46875 48.140625 C 43.09375 53.296875 40.8125 57.160156 38.625 59.734375 C 36.84375 62.304688 35.0625 64.085938 33.28125 65.078125 C 30.707031 66.460938 28.378906 66.707031 26.296875 65.8125 C 24.210938 64.925781 22.773438 63.097656 21.984375 60.328125 C 21.390625 58.347656 21.191406 56.363281 21.390625 54.375 C 21.585938 52.195312 22.285156 49.128906 23.484375 45.171875 C 24.273438 43.585938 25.3125 41.207031 26.59375 38.03125 C 27.882812 34.863281 28.828125 32.488281 29.421875 30.90625 C 38.335938 13.269531 47.453125 -2.28125 56.765625 -15.75 C 58.941406 -19.113281 60.425781 -22.679688 61.21875 -26.453125 C 63.988281 -43.878906 66.265625 -56.953125 68.046875 -65.671875 C 71.617188 -84.097656 74.691406 -99.453125 77.265625 -111.734375 C 77.859375 -114.703125 77.859375 -116.585938 77.265625 -117.390625 C 61.410156 -100.941406 45.164062 -87.664062 28.53125 -77.5625 C 22.78125 -74.195312 18.222656 -72.019531 14.859375 -71.03125 C 12.484375 -70.226562 10.003906 -69.628906 7.421875 -69.234375 C 2.078125 -69.234375 -1.1875 -71.8125 -2.375 -76.96875 C -2.96875 -78.550781 -3.066406 -80.332031 -2.671875 -82.3125 C -2.078125 -85.488281 -1.085938 -88.066406 0.296875 -90.046875 C 4.847656 -98.367188 11.484375 -104.90625 20.203125 -109.65625 C 28.921875 -114.40625 37.9375 -116.382812 47.25 -115.59375 C 51.40625 -115.394531 54.472656 -114.800781 56.453125 -113.8125 C 58.441406 -112.820312 60.820312 -110.84375 63.59375 -107.875 C 64.382812 -108.070312 65.472656 -108.863281 66.859375 -110.25 C 75.378906 -118.570312 80.332031 -123.722656 81.71875 -125.703125 C 82.507812 -126.492188 83.203125 -126.59375 83.796875 -126 C 84.390625 -125.40625 84.585938 -124.8125 84.390625 -124.21875 L 82.609375 -117.390625 C 81.023438 -110.054688 78.648438 -98.859375 75.484375 -83.796875 C 75.085938 -82.410156 72.707031 -68.941406 68.34375 -43.390625 C 67.15625 -37.835938 66.363281 -33.578125 65.96875 -30.609375 C 66.957031 -30.410156 67.847656 -30.90625 68.640625 -32.09375 C 70.035156 -33.675781 72.066406 -36.003906 74.734375 -39.078125 C 77.410156 -42.148438 79.34375 -44.476562 80.53125 -46.0625 C 89.644531 -57.15625 100.9375 -67.65625 114.40625 -77.5625 C 121.9375 -83.101562 127.382812 -87.363281 130.75 -90.34375 L 135.515625 -93.90625 C 136.503906 -94.300781 137.296875 -94.300781 137.890625 -93.90625 Z M 57.953125 -101.9375 C 58.941406 -102.925781 59.535156 -103.816406 59.734375 -104.609375 C 57.953125 -106.585938 55.570312 -107.773438 52.59375 -108.171875 C 32.582031 -111.140625 16.832031 -103.910156 5.34375 -86.484375 C 4.15625 -84.691406 3.265625 -82.707031 2.671875 -80.53125 C 1.679688 -74.988281 3.960938 -72.515625 9.515625 -73.109375 C 9.910156 -73.109375 10.503906 -73.207031 11.296875 -73.40625 C 12.085938 -73.601562 12.679688 -73.703125 13.078125 -73.703125 C 16.835938 -74.890625 20.304688 -76.375 23.484375 -78.15625 C 34.179688 -83.707031 45.671875 -91.632812 57.953125 -101.9375 Z M 41.3125 46.65625 C 46.851562 34.96875 52.300781 16.144531 57.65625 -9.8125 C 56.070312 -8.625 54.679688 -7.035156 53.484375 -5.046875 C 46.753906 5.847656 41.207031 15.457031 36.84375 23.78125 C 32.6875 31.695312 29.519531 38.726562 27.34375 44.875 C 26.15625 48.832031 25.363281 51.898438 24.96875 54.078125 C 24.375 55.671875 24.472656 57.359375 25.265625 59.140625 C 26.648438 62.503906 28.726562 63.195312 31.5 61.21875 C 32.488281 60.820312 33.875 59.4375 35.65625 57.0625 C 37.039062 54.875 38.925781 51.40625 41.3125 46.65625 Z M 41.3125 46.65625 "/></g></g></g><g fill="#3b3b3b" fill-opacity="1"><g transform="translate(1695.685567, 766.875787)"><g><path d="M 17.828125 -59.140625 C 13.671875 -59.535156 11 -61.613281 9.8125 -65.375 C 9.414062 -66.757812 9.21875 -69.140625 9.21875 -72.515625 C 9.414062 -74.296875 9.710938 -76.320312 10.109375 -78.59375 C 10.503906 -80.875 10.75 -82.410156 10.84375 -83.203125 C 10.945312 -83.992188 10.945312 -84.882812 10.84375 -85.875 C 10.75 -86.875 10.503906 -87.617188 10.109375 -88.109375 C 9.710938 -88.609375 9.117188 -89.15625 8.328125 -89.75 C 6.335938 -90.9375 4.550781 -92.421875 2.96875 -94.203125 C -0.789062 -98.953125 -0.296875 -103.113281 4.453125 -106.6875 C 6.035156 -107.675781 7.570312 -107.820312 9.0625 -107.125 C 10.550781 -106.4375 11.394531 -105.203125 11.59375 -103.421875 C 11.789062 -102.628906 11.691406 -101.238281 11.296875 -99.25 C 11.296875 -99.050781 10.800781 -97.765625 9.8125 -95.390625 C 9.21875 -94.597656 9.316406 -93.804688 10.109375 -93.015625 C 10.703125 -92.421875 11.195312 -92.023438 11.59375 -91.828125 C 14.957031 -89.253906 16.539062 -85.488281 16.34375 -80.53125 C 16.34375 -79.539062 16.289062 -78.054688 16.1875 -76.078125 C 16.09375 -74.097656 16.046875 -72.613281 16.046875 -71.625 C 16.046875 -70.425781 16.242188 -68.835938 16.640625 -66.859375 C 17.234375 -64.679688 18.71875 -63.59375 21.09375 -63.59375 C 22.6875 -63.789062 24.570312 -64.382812 26.75 -65.375 C 30.507812 -66.957031 34.269531 -69.335938 38.03125 -72.515625 C 39.820312 -73.898438 43.6875 -77.019531 49.625 -81.875 C 55.570312 -86.726562 59.4375 -89.847656 61.21875 -91.234375 C 62.800781 -92.421875 64.085938 -93.3125 65.078125 -93.90625 C 65.273438 -94.101562 65.472656 -94.148438 65.671875 -94.046875 C 65.867188 -93.953125 65.96875 -93.804688 65.96875 -93.609375 C 66.363281 -93.210938 66.460938 -92.914062 66.265625 -92.71875 C 65.671875 -91.726562 65.273438 -91.132812 65.078125 -90.9375 C 62.503906 -88.757812 57.703125 -84.847656 50.671875 -79.203125 C 43.640625 -73.554688 39.425781 -70.234375 38.03125 -69.234375 C 34.664062 -66.265625 30.3125 -63.492188 24.96875 -60.921875 C 22.976562 -59.734375 20.597656 -59.140625 17.828125 -59.140625 Z M 5.9375 -96.875 L 7.125 -97.46875 C 8.125 -99.050781 8.625 -100.640625 8.625 -102.234375 C 8.625 -102.628906 8.320312 -103.125 7.71875 -103.71875 C 7.320312 -104.113281 6.726562 -104.113281 5.9375 -103.71875 C 3.757812 -102.125 3.460938 -100.140625 5.046875 -97.765625 Z M 5.9375 -96.875 "/></g></g></g><g fill="#3b3b3b" fill-opacity="1"><g transform="translate(1756.010857, 766.875787)"><g><path d="M 35.359375 -81.71875 C 31.003906 -80.53125 28.53125 -82.21875 27.9375 -86.78125 C 27.738281 -89.15625 27.9375 -91.828125 28.53125 -94.796875 C 28.925781 -96.972656 29.023438 -98.359375 28.828125 -98.953125 C 28.429688 -98.953125 28.035156 -98.851562 27.640625 -98.65625 C 27.242188 -98.457031 26.945312 -98.257812 26.75 -98.0625 C 26.550781 -97.863281 26.300781 -97.613281 26 -97.3125 C 25.707031 -97.019531 25.460938 -96.773438 25.265625 -96.578125 C 20.703125 -92.617188 16.539062 -89.75 12.78125 -87.96875 C 11.394531 -87.175781 10.007812 -86.476562 8.625 -85.875 C 6.632812 -85.28125 5.09375 -85.476562 4 -86.46875 C 2.914062 -87.46875 2.570312 -88.957031 2.96875 -90.9375 C 2.96875 -91.332031 3.164062 -92.125 3.5625 -93.3125 C 4.75 -96.082031 6.535156 -98.359375 8.921875 -100.140625 C 13.078125 -103.117188 17.234375 -103.117188 21.390625 -100.140625 L 21.6875 -99.84375 L 21.984375 -99.84375 C 23.378906 -98.851562 24.570312 -98.851562 25.5625 -99.84375 L 31.203125 -105.5 C 32.191406 -106.289062 32.984375 -106.390625 33.578125 -105.796875 C 34.171875 -105.203125 34.269531 -104.707031 33.875 -104.3125 C 33.675781 -102.726562 33.179688 -100.347656 32.390625 -97.171875 C 31.398438 -93.410156 31.003906 -89.945312 31.203125 -86.78125 C 31.398438 -85.1875 32.390625 -84.488281 34.171875 -84.6875 C 37.140625 -85.082031 45.066406 -88.351562 57.953125 -94.5 C 58.742188 -94.5 59.238281 -94.300781 59.4375 -93.90625 C 59.832031 -92.914062 59.335938 -92.023438 57.953125 -91.234375 C 47.648438 -86.078125 40.117188 -82.90625 35.359375 -81.71875 Z M 10.109375 -89.75 C 12.285156 -90.539062 14.5625 -91.628906 16.9375 -93.015625 C 18.320312 -94.003906 19.113281 -94.796875 19.3125 -95.390625 C 19.507812 -95.785156 19.257812 -96.128906 18.5625 -96.421875 C 17.875 -96.722656 17.035156 -96.875 16.046875 -96.875 C 14.460938 -96.476562 13.273438 -96.082031 12.484375 -95.6875 C 10.109375 -93.90625 8.519531 -92.023438 7.71875 -90.046875 C 8.71875 -89.253906 9.515625 -89.15625 10.109375 -89.75 Z M 10.109375 -89.75 "/></g></g></g><g fill="#3b3b3b" fill-opacity="1"><g transform="translate(1809.501243, 766.875787)"><g><path d="M -10.40625 35.65625 C -12.1875 35.457031 -13.273438 33.972656 -13.671875 31.203125 C -14.660156 27.441406 -14.957031 23.28125 -14.5625 18.71875 C -14.363281 10.394531 -13.078125 -0.894531 -10.703125 -15.15625 C -7.722656 -32.195312 -4.453125 -49.53125 -0.890625 -67.15625 C -0.890625 -67.550781 -0.296875 -70.519531 0.890625 -76.0625 C 2.078125 -81.613281 2.867188 -85.484375 3.265625 -87.671875 C 3.460938 -90.046875 4.054688 -92.125 5.046875 -93.90625 C 5.640625 -94.894531 6.429688 -95.390625 7.421875 -95.390625 C 8.617188 -95.191406 9.21875 -94.5 9.21875 -93.3125 C 9.613281 -90.539062 9.8125 -88.363281 9.8125 -86.78125 C 9.8125 -82.613281 7.925781 -70.625 4.15625 -50.8125 C 1.582031 -38.53125 -2.078125 -20.109375 -6.828125 4.453125 C -7.421875 7.429688 -8.015625 11.890625 -8.609375 17.828125 C -9.210938 23.773438 -9.515625 26.945312 -9.515625 27.34375 L -8.921875 28.234375 C -8.328125 28.234375 -8.03125 28.035156 -8.03125 27.640625 C -6.4375 23.671875 -5.34375 20.695312 -4.75 18.71875 C 1.976562 -5.050781 7.425781 -22.78125 11.59375 -34.46875 C 16.9375 -50.320312 22.484375 -63.003906 28.234375 -72.515625 C 31.796875 -78.648438 35.0625 -83.40625 38.03125 -86.78125 C 42.195312 -91.925781 47.148438 -96.378906 52.890625 -100.140625 C 57.847656 -102.921875 62.109375 -104.3125 65.671875 -104.3125 C 73.003906 -104.3125 77.660156 -100.84375 79.640625 -93.90625 C 80.035156 -92.519531 80.429688 -91.675781 80.828125 -91.375 C 81.222656 -91.082031 82.015625 -91.035156 83.203125 -91.234375 C 86.773438 -92.023438 95.394531 -93.410156 109.0625 -95.390625 C 109.257812 -95.390625 112.726562 -95.6875 119.46875 -96.28125 C 119.863281 -96.28125 120.40625 -96.226562 121.09375 -96.125 C 121.789062 -96.03125 122.238281 -95.984375 122.4375 -95.984375 C 122.832031 -95.585938 123.03125 -95.289062 123.03125 -95.09375 C 123.226562 -94.5 123.128906 -94.003906 122.734375 -93.609375 C 121.546875 -92.816406 119.765625 -92.421875 117.390625 -92.421875 C 112.429688 -92.421875 105 -91.628906 95.09375 -90.046875 C 93.90625 -89.847656 92.019531 -89.453125 89.4375 -88.859375 C 86.863281 -88.265625 84.882812 -87.867188 83.5 -87.671875 C 80.925781 -87.078125 79.539062 -85.6875 79.34375 -83.5 C 77.957031 -75.78125 74.585938 -68.453125 69.234375 -61.515625 C 65.273438 -55.367188 59.828125 -51.304688 52.890625 -49.328125 C 48.929688 -47.941406 45.515625 -48.535156 42.640625 -51.109375 C 39.765625 -53.691406 38.726562 -57.160156 39.53125 -61.515625 C 40.519531 -66.265625 42.796875 -70.328125 46.359375 -73.703125 C 51.703125 -78.847656 57.644531 -82.707031 64.1875 -85.28125 L 73.703125 -88.859375 C 75.285156 -89.253906 75.976562 -90.441406 75.78125 -92.421875 C 75.382812 -97.171875 72.707031 -99.84375 67.75 -100.4375 C 64.976562 -100.832031 62.601562 -100.632812 60.625 -99.84375 C 57.457031 -98.851562 53.691406 -96.773438 49.328125 -93.609375 C 44.578125 -90.046875 40.117188 -85.289062 35.953125 -79.34375 C 29.617188 -70.625 23.875 -59.628906 18.71875 -46.359375 C 15.550781 -38.628906 11.585938 -27.039062 6.828125 -11.59375 C 5.640625 -8.019531 4.003906 -2.671875 1.921875 4.453125 C -0.148438 11.585938 -1.679688 16.9375 -2.671875 20.5 C -3.460938 23.082031 -4.847656 26.945312 -6.828125 32.09375 C -7.628906 34.46875 -8.820312 35.65625 -10.40625 35.65625 Z M 49.328125 -52 C 49.722656 -52 50.710938 -52.195312 52.296875 -52.59375 C 56.460938 -53.976562 60.03125 -56.359375 63 -59.734375 C 69.144531 -66.460938 73.207031 -74.085938 75.1875 -82.609375 C 75.382812 -83.597656 75.332031 -84.289062 75.03125 -84.6875 C 74.738281 -85.082031 74.097656 -85.082031 73.109375 -84.6875 C 64.390625 -81.914062 56.5625 -77.5625 49.625 -71.625 C 47.050781 -69.238281 44.972656 -66.363281 43.390625 -63 C 43.390625 -62.800781 43.289062 -62.453125 43.09375 -61.953125 C 42.894531 -61.460938 42.742188 -61.019531 42.640625 -60.625 C 42.546875 -60.226562 42.5 -59.832031 42.5 -59.4375 C 42.300781 -57.457031 42.894531 -55.671875 44.28125 -54.078125 C 45.664062 -52.492188 47.347656 -51.800781 49.328125 -52 Z M 49.328125 -52 "/></g></g></g><g fill="#3b3b3b" fill-opacity="1"><g transform="translate(1926.585813, 766.875787)"><g><path d="M 11.59375 -71.03125 C 9.007812 -68.445312 6.828125 -68.84375 5.046875 -72.21875 C 4.054688 -74.59375 3.363281 -77.460938 2.96875 -80.828125 C 2.570312 -89.742188 3.164062 -97.472656 4.75 -104.015625 C 8.125 -120.648438 13.769531 -138.773438 21.6875 -158.390625 C 25.65625 -167.503906 30.507812 -175.828125 36.25 -183.359375 C 38.238281 -186.328125 40.421875 -188.601562 42.796875 -190.1875 C 44.378906 -191.375 45.960938 -192.265625 47.546875 -192.859375 C 50.316406 -193.847656 52.59375 -193.15625 54.375 -190.78125 C 55.96875 -188.601562 56.765625 -186.03125 56.765625 -183.0625 C 56.960938 -178.894531 56.367188 -173.941406 54.984375 -168.203125 C 52.992188 -159.484375 49.625 -150.664062 44.875 -141.75 C 37.34375 -126.695312 29.21875 -114.019531 20.5 -103.71875 C 15.75 -98.5625 12.582031 -95.289062 11 -93.90625 C 9.613281 -92.914062 8.921875 -91.828125 8.921875 -90.640625 C 7.921875 -84.296875 8.117188 -78.648438 9.515625 -73.703125 C 11.492188 -74.691406 13.472656 -76.570312 15.453125 -79.34375 L 25.859375 -90.9375 C 27.441406 -92.914062 29.617188 -94.894531 32.390625 -96.875 C 33.773438 -98.257812 35.257812 -99.050781 36.84375 -99.25 C 40.414062 -100.238281 43.09375 -99.445312 44.875 -96.875 C 46.851562 -94.695312 48.535156 -92.421875 49.921875 -90.046875 C 52.890625 -84.691406 57.097656 -81.46875 62.546875 -80.375 C 68.003906 -79.289062 73.40625 -80.828125 78.75 -84.984375 L 86.78125 -92.125 C 87.375 -92.71875 88.265625 -93.410156 89.453125 -94.203125 C 89.453125 -94.597656 89.75 -94.5 90.34375 -93.90625 C 90.539062 -93.90625 90.640625 -93.707031 90.640625 -93.3125 L 90.34375 -93.015625 C 85.382812 -86.867188 80.132812 -82.410156 74.59375 -79.640625 C 70.425781 -77.066406 65.566406 -76.421875 60.015625 -77.703125 C 54.472656 -78.992188 50.316406 -82.117188 47.546875 -87.078125 C 44.773438 -91.429688 43.191406 -93.90625 42.796875 -94.5 C 40.816406 -97.46875 38.238281 -97.960938 35.0625 -95.984375 C 33.28125 -94.992188 31.398438 -93.507812 29.421875 -91.53125 C 26.054688 -88.363281 22.191406 -83.90625 17.828125 -78.15625 C 17.429688 -77.5625 16.835938 -76.769531 16.046875 -75.78125 C 15.253906 -74.789062 14.507812 -73.898438 13.8125 -73.109375 C 13.125 -72.316406 12.382812 -71.625 11.59375 -71.03125 Z M 10.109375 -97.46875 L 11 -97.46875 C 11.195312 -97.664062 11.59375 -98.007812 12.1875 -98.5 C 12.78125 -99 13.273438 -99.492188 13.671875 -99.984375 C 14.066406 -100.484375 14.460938 -100.929688 14.859375 -101.328125 C 26.941406 -114.609375 37.441406 -130.757812 46.359375 -149.78125 C 48.929688 -155.519531 50.910156 -161.066406 52.296875 -166.421875 C 53.878906 -171.765625 54.671875 -176.816406 54.671875 -181.578125 C 54.671875 -183.359375 54.375 -185.140625 53.78125 -186.921875 C 52.394531 -190.085938 50.117188 -190.78125 46.953125 -189 C 44.378906 -187.019531 42.398438 -184.84375 41.015625 -182.46875 C 39.617188 -180.28125 37.734375 -177.007812 35.359375 -172.65625 C 29.816406 -162.75 24.664062 -150.367188 19.90625 -135.515625 C 15.75 -123.628906 12.679688 -113.03125 10.703125 -103.71875 C 10.304688 -100.34375 10.109375 -98.257812 10.109375 -97.46875 Z M 10.109375 -97.46875 "/></g></g></g><g fill="#3b3b3b" fill-opacity="1"><g transform="translate(2011.279012, 766.875787)"><g><path d="M 0.296875 49.328125 C -2.273438 49.722656 -4.40625 49.226562 -6.09375 47.84375 C -7.78125 46.457031 -8.722656 44.476562 -8.921875 41.90625 C -8.921875 39.125 -8.625 36.546875 -8.03125 34.171875 C -6.632812 27.640625 -4.351562 21.101562 -1.1875 14.5625 C 4.351562 3.070312 12.578125 -10.003906 23.484375 -24.671875 C 28.429688 -31.398438 36.253906 -41.101562 46.953125 -53.78125 C 48.929688 -56.164062 50.21875 -58.742188 50.8125 -61.515625 C 51.007812 -62.304688 52.5 -72.507812 55.28125 -92.125 C 55.476562 -93.507812 55.820312 -95.488281 56.3125 -98.0625 C 56.8125 -100.644531 57.160156 -102.53125 57.359375 -103.71875 C 57.359375 -105.894531 57.257812 -107.082031 57.0625 -107.28125 C 56.664062 -107.28125 55.375 -106.488281 53.1875 -104.90625 C 48.238281 -100.34375 42.691406 -94.398438 36.546875 -87.078125 C 30.410156 -80.335938 25.0625 -75.085938 20.5 -71.328125 C 18.125 -69.335938 15.945312 -67.945312 13.96875 -67.15625 C 7.425781 -64.582031 3.363281 -66.664062 1.78125 -73.40625 C 0.195312 -78.945312 0.789062 -85.679688 3.5625 -93.609375 C 3.757812 -94.003906 4.351562 -94.695312 5.34375 -95.6875 C 5.9375 -96.082031 6.628906 -96.128906 7.421875 -95.828125 C 8.222656 -95.535156 8.722656 -95.09375 8.921875 -94.5 L 9.21875 -91.53125 C 9.019531 -89.75 8.921875 -86.476562 8.921875 -81.71875 L 8.921875 -76.96875 C 9.117188 -73.207031 11.097656 -72.019531 14.859375 -73.40625 C 16.835938 -74.195312 19.210938 -75.679688 21.984375 -77.859375 C 24.367188 -79.640625 27.738281 -82.710938 32.09375 -87.078125 C 35.257812 -90.441406 40.210938 -95.492188 46.953125 -102.234375 C 48.335938 -103.816406 50.613281 -105.992188 53.78125 -108.765625 C 53.976562 -108.960938 54.972656 -109.65625 56.765625 -110.84375 C 58.546875 -111.632812 59.632812 -111.039062 60.03125 -109.0625 L 60.03125 -107.28125 C 60.03125 -104.3125 59.832031 -102.128906 59.4375 -100.734375 C 58.644531 -94.597656 56.957031 -83.207031 54.375 -66.5625 C 54.175781 -66.164062 54.078125 -65.570312 54.078125 -64.78125 C 54.078125 -63.988281 54.078125 -63.492188 54.078125 -63.296875 C 55.078125 -63.097656 56.171875 -63.59375 57.359375 -64.78125 C 65.273438 -72.707031 74.484375 -81.425781 84.984375 -90.9375 L 88.5625 -93.609375 C 89.15625 -93.804688 89.550781 -93.707031 89.75 -93.3125 L 89.75 -92.421875 L 87.96875 -90.640625 C 85.382812 -88.066406 83.398438 -86.179688 82.015625 -84.984375 C 72.503906 -76.671875 63.988281 -68.648438 56.46875 -60.921875 C 53.882812 -58.347656 52.296875 -55.273438 51.703125 -51.703125 C 47.742188 -30.304688 43.382812 -12.675781 38.625 1.1875 C 35.65625 9.707031 32.984375 16.34375 30.609375 21.09375 C 27.640625 27.238281 23.378906 33.179688 17.828125 38.921875 C 13.671875 43.085938 9.507812 46.0625 5.34375 47.84375 C 3.5625 48.632812 1.878906 49.128906 0.296875 49.328125 Z M 0.890625 46.359375 L 5.34375 44.578125 C 9.113281 42.796875 12.285156 40.414062 14.859375 37.4375 C 20.398438 31.695312 24.660156 25.753906 27.640625 19.609375 C 31.398438 11.890625 34.269531 4.957031 36.25 -1.1875 C 40.21875 -12.28125 44.082031 -27.535156 47.84375 -46.953125 C 48.238281 -48.734375 48.238281 -50.019531 47.84375 -50.8125 C 47.25 -50.613281 46.753906 -50.363281 46.359375 -50.0625 C 45.960938 -49.769531 45.566406 -49.328125 45.171875 -48.734375 C 44.773438 -48.140625 44.476562 -47.742188 44.28125 -47.546875 L 29.71875 -29.71875 C 18.820312 -15.65625 9.804688 -1.882812 2.671875 11.59375 C -1.285156 19.113281 -4.054688 26.441406 -5.640625 33.578125 C -6.234375 35.953125 -6.53125 38.332031 -6.53125 40.71875 C -6.332031 45.46875 -3.859375 47.347656 0.890625 46.359375 Z M 0.890625 46.359375 "/></g></g></g></svg>